<svg width="48" height="48" viewBox="0 0 48 48" fill="none" xmlns="http://www.w3.org/2000/svg">
<path d="M23.9996 0C10.7451 0 0 10.7453 0 23.9996C0 37.2534 10.7451 48 23.9996 48C37.2541 48 48 37.2538 48 23.9996C47.9996 10.7453 37.2541 0 23.9996 0ZM32.1959 15.3519C32.1959 15.581 32.0104 15.7669 31.7809 15.7669H25.9384V18.907H31.7805C32.01 18.907 32.1955 19.0929 32.1955 19.322V25.1636C32.1955 25.3931 32.01 25.5786 31.7805 25.5786H26.3534V38.3979C26.3534 38.6274 26.1679 38.8129 25.9384 38.8129H20.4171C20.1876 38.8129 20.0021 38.6274 20.0021 38.3979V25.579H16.2187C15.9892 25.579 15.8037 25.3935 15.8037 25.164V19.3224C15.8037 19.0934 15.9892 18.9074 16.2187 18.9074H20.0021V16.5388C20.0021 16.5047 20.0062 16.472 20.0137 16.4404C20.017 13.0663 20.7387 9.20619 26.2666 9.18876C26.2787 9.18793 26.2915 9.1871 26.304 9.1871H31.7805C32.01 9.1871 32.1955 9.37301 32.1955 9.60207L32.1959 15.3519Z"/>
</svg>
