<svg xmlns="http://www.w3.org/2000/svg">
    <symbol id="social-vk" viewBox="0 0 48 48">
        <path fill-rule="evenodd" clip-rule="evenodd" d="M0 24C0 10.7452 10.7452 0 24 0C37.2548 0 48 10.7452 48 24C48 37.2548 37.2548 48 24 48C10.7452 48 0 37.2548 0 24ZM25.2555 31.8761C25.2555 31.8761 25.7175 31.8257 25.9541 31.5762C26.1707 31.3476 26.1632 30.9162 26.1632 30.9162C26.1632 30.9162 26.1344 28.9018 27.0873 28.6043C28.0264 28.3118 29.2321 30.5524 30.5118 31.414C31.4784 32.0654 32.2121 31.9228 32.2121 31.9228L35.6316 31.8761C35.6316 31.8761 37.4196 31.7679 36.5719 30.3877C36.5018 30.2746 36.0773 29.3664 34.0302 27.5006C31.8853 25.5477 32.1733 25.8635 34.7551 22.4849C36.3278 20.4274 36.9563 19.1713 36.7597 18.6343C36.5732 18.1205 35.4162 18.2569 35.4162 18.2569L31.5673 18.2803C31.5673 18.2803 31.2818 18.2422 31.0702 18.3663C30.8636 18.488 30.7296 18.7719 30.7296 18.7719C30.7296 18.7719 30.1211 20.3635 29.3085 21.7179C27.5944 24.5743 26.9095 24.7254 26.629 24.5485C25.9767 24.1343 26.1394 22.8868 26.1394 22.0006C26.1394 19.2316 26.5677 18.0775 25.3068 17.7788C24.8886 17.6793 24.5806 17.6141 23.51 17.6031C22.1365 17.5896 20.9745 17.608 20.3159 17.9239C19.8777 18.134 19.5396 18.6035 19.7462 18.6306C20.0004 18.6637 20.5764 18.783 20.8819 19.191C21.2763 19.7183 21.2625 20.9006 21.2625 20.9006C21.2625 20.9006 21.4892 24.1601 20.7329 24.5644C20.2145 24.8422 19.5033 24.2756 17.9745 21.6835C17.192 20.3562 16.601 18.8887 16.601 18.8887C16.601 18.8887 16.487 18.6146 16.2829 18.4671C16.0363 18.2889 15.6919 18.2336 15.6919 18.2336L12.0346 18.2569C12.0346 18.2569 11.4849 18.2717 11.2833 18.5064C11.1043 18.7141 11.2695 19.1455 11.2695 19.1455C11.2695 19.1455 14.1331 25.7222 17.376 29.037C20.3497 32.0752 23.7254 31.8761 23.7254 31.8761H25.2555Z"/>
    </symbol>
    <symbol id="social-telegram" viewBox="0 0 48 48">
    <path fill-rule="evenodd" clip-rule="evenodd" d="M48 24C48 37.2548 37.2548 48 24 48C10.7452 48 0 37.2548 0 24C0 10.7452 10.7452 0 24 0C37.2548 0 48 10.7452 48 24ZM16.0715 21.8015C13.6673 22.8512 11.1971 23.9298 8.93825 25.174C7.75877 26.0376 9.32638 26.6485 10.7971 27.2215C11.0309 27.3126 11.2622 27.4027 11.4797 27.4927C11.6607 27.5484 11.8447 27.607 12.0312 27.6664C13.6669 28.1875 15.4907 28.7686 17.0787 27.8945C19.6873 26.396 22.149 24.6636 24.6089 22.9325C25.4148 22.3653 26.2205 21.7983 27.0311 21.2397C27.0691 21.2154 27.1119 21.1876 27.1588 21.1573C27.8493 20.7096 29.4024 19.7029 28.8279 21.0901C27.4695 22.5757 26.0144 23.8907 24.5515 25.213C23.5655 26.1041 22.5759 26.9985 21.6099 27.9505C20.7686 28.6341 19.8949 30.0088 20.837 30.9661C23.0069 32.4851 25.2107 33.9673 27.4132 35.4487C28.1299 35.9307 28.8466 36.4127 29.5618 36.8959C30.774 37.8637 32.6685 37.0808 32.935 35.5685C33.0535 34.8728 33.1725 34.1772 33.2915 33.4815C33.9491 29.6368 34.6069 25.7907 35.188 21.9335C35.267 21.3284 35.3565 20.7234 35.4461 20.1181C35.6632 18.651 35.8806 17.1821 35.9485 15.7071C35.7735 14.2351 33.9887 14.5588 32.9955 14.8898C27.8903 16.8324 22.8361 18.919 17.8019 21.0424C17.2316 21.295 16.6535 21.5474 16.0715 21.8015Z" />
    </symbol>
    <symbol id="social-facebook" viewBox="0 0 48 48">
    <path d="M23.9996 0C10.7451 0 0 10.7453 0 23.9996C0 37.2534 10.7451 48 23.9996 48C37.2541 48 48 37.2538 48 23.9996C47.9996 10.7453 37.2541 0 23.9996 0ZM32.1959 15.3519C32.1959 15.581 32.0104 15.7669 31.7809 15.7669H25.9384V18.907H31.7805C32.01 18.907 32.1955 19.0929 32.1955 19.322V25.1636C32.1955 25.3931 32.01 25.5786 31.7805 25.5786H26.3534V38.3979C26.3534 38.6274 26.1679 38.8129 25.9384 38.8129H20.4171C20.1876 38.8129 20.0021 38.6274 20.0021 38.3979V25.579H16.2187C15.9892 25.579 15.8037 25.3935 15.8037 25.164V19.3224C15.8037 19.0934 15.9892 18.9074 16.2187 18.9074H20.0021V16.5388C20.0021 16.5047 20.0062 16.472 20.0137 16.4404C20.017 13.0663 20.7387 9.20619 26.2666 9.18876C26.2787 9.18793 26.2915 9.1871 26.304 9.1871H31.7805C32.01 9.1871 32.1955 9.37301 32.1955 9.60207L32.1959 15.3519Z"/>
    </symbol>
    
</svg>

